# xmcd
#
# Track frame offsets:
#	150
#	11657
#	44860
#	55380
#	68480
#	83567
#	95402
#	125402
#	138602
#	153155
#	165220
#	179965
#	193202
#	205357
#	226125
#	235897
#	247600
#	259200
#	274922
#	287427
#
# Disc length: 4059
#
# Revision: 1
# Processed by: cddbd v1.5.1PL0 Copyright (c) Steve Scherf et al.
# Submitted via: CDex 1.51
# Normalized: r0:DSETVAR1,TDELIM( - )
#
DISCID=1b0fd914
DTITLE=Various Artist - Chicago Blues
DYEAR=1999
DGENRE=Blues
TTITLE0=Junior Parker - Sweet home Chicago
TTITLE1=Howlin' Wolf, Muddy Waters and Bo Didley - The red rooster
TTITLE2=J.B. Lenoir - Mama talk to your daughter
TTITLE3=Buddy Guy - Let me love you
TTITLE4=Floyd Jones - Dark road
TTITLE5=G.L. Crockett - Look out Mabel
TTITLE6=Little Milton - I can't quit you baby
TTITLE7=Little Johnny Jones - Big town playboy
TTITLE8=Otis Rush - So many roads so many trains
TTITLE9=Johnny Shines - Joliet blues
TTITLE10=Eddie Boyd - Third degree
TTITLE11=Saint Louis Jimmy - Florida hurricane
TTITLE12=Jimmy Rogers - What have I done
TTITLE13=Buddy Scott - Big boss man
TTITLE14=Willie Dixon - Twenty nine ways
TTITLE15=Blue Smitty - Date bait
TTITLE16=James Cotton - Don't start me to talkin'
TTITLE17=Otis Spann - Chicago blues
TTITLE18=John Brim - Ice cream man
TTITLE19=Jody Williams - Lucky you
EXTD=YEAR: 1999
EXTT0=
EXTT1=
EXTT2=
EXTT3=
EXTT4=
EXTT5=
EXTT6=
EXTT7=
EXTT8=
EXTT9=
EXTT10=
EXTT11=
EXTT12=
EXTT13=
EXTT14=
EXTT15=
EXTT16=
EXTT17=
EXTT18=
EXTT19=
PLAYORDER=
